# xmcd
#
# Track frame offsets:
#	150
#	17144
#	38795
#	68878
#	87532
#	108669
#	125890
#	147161
#	168479
#	189270
#	206365
#
# Disc length: 3026 seconds
#
# Revision: 1
# Processed by: cddbd v1.5.1PL2 Copyright (c) Steve Scherf et al.
# Submitted via: audiograbber 1.83.01
#
DISCID=9e0bd00b
DTITLE=Gianfranco Segatto - Drivin' By The Blues Ocean
DYEAR=2006
DGENRE=Blues
TTITLE0=All My Tears Are Dry
TTITLE1=You Gotta Help Me
TTITLE2=Good Morning Blues
TTITLE3=Tequila Mockingbird
TTITLE4=It's A Blue Sky Day
TTITLE5=Blues Ain't Gone
TTITLE6=Bring It To Me
TTITLE7=Superstition
TTITLE8=Unzip My Pride
TTITLE9=The Wind Cries Mary
TTITLE10=Nous
EXTD=
EXTT0=
EXTT1=
EXTT2=
EXTT3=
EXTT4=
EXTT5=
EXTT6=
EXTT7=
EXTT8=
EXTT9=
EXTT10=
PLAYORDER=
